<?xml version="1.0" encoding="utf-8"?>
<!-- Generator: Adobe Illustrator 21.0.0, SVG Export Plug-In . SVG Version: 6.00 Build 0)  -->
<svg version="1.1" id="Layer_1" xmlns="http://www.w3.org/2000/svg" xmlns:xlink="http://www.w3.org/1999/xlink" x="0px" y="0px"
	 viewBox="0 0 300 300" style="enable-background:new 0 0 300 300;" xml:space="preserve">
<style type="text/css">
	.st0{fill:none;stroke:url(#SVGID_1_);stroke-width:4;stroke-miterlimit:10;}
	.st1{fill:none;stroke:url(#SVGID_2_);stroke-width:4;stroke-miterlimit:10;}
	.st2{fill:none;stroke:url(#SVGID_3_);stroke-width:4;stroke-miterlimit:10;}
	.st3{fill:none;stroke:url(#SVGID_4_);stroke-width:4;stroke-miterlimit:10;}
</style>
<linearGradient id="SVGID_1_" gradientUnits="userSpaceOnUse" x1="24.8933" y1="115.1965" x2="252.9301" y2="115.1965">
	<stop  offset="0" style="stop-color:#ED1E79"/>
	<stop  offset="1" style="stop-color:#0000FF"/>
</linearGradient>
<path class="st0" d="M243.5,107.2c0.7,0,4.3-0.4,6.3-3.2c2.8-4-0.3-9.3-0.6-9.7c-3.4-5.7-11.4-6.3-14.7-6.5c-11.8-0.9-12.4,4-27,6
	c-6.2,0.9-11.5,0.2-22-1.1c-9-1.1-13.4-2.4-21-3.9c0,0-15.9-3.1-32.3-3.9c-38.1-1.8-70.3,22.5-80.6,30.2c-2.4,1.8,0.2,0-21,22
	c-1.7,1.8-4.3,4.5-3.6,6.4c0.9,2.3,6.4,2.2,17.4,1.8c7.5-0.3,11.7-0.4,17.4-1.8c5.5-1.3,8.3-2,11.4-3.9c6.6-4.2,6.6-8.9,12.1-11
	c1.6-0.6,2.2-0.3,5.9,0c0.3,0,1.9,0.1,5.1,0.3c2.1,0.1,5.2,0.2,9,0.1"/>
<linearGradient id="SVGID_2_" gradientUnits="userSpaceOnUse" x1="159.8743" y1="116.3084" x2="247.218" y2="116.3084">
	<stop  offset="0" style="stop-color:#ED1E79"/>
	<stop  offset="1" style="stop-color:#0000FF"/>
</linearGradient>
<path class="st1" d="M246.3,106.6c-1.9,1-4.4,0.6-6.8,0.4c0,0-10.8-1.2-29.8,1.4c-7.2,1-10.4,2.8-20.2,6.7
	c-11.7,4.6-20.9,8.3-28.9,10.9"/>
<linearGradient id="SVGID_3_" gradientUnits="userSpaceOnUse" x1="256.5938" y1="78.3018" x2="284.7821" y2="78.3018" gradientTransform="matrix(0.9989 -4.726593e-02 4.726593e-02 0.9989 -6.8747 34.0534)">
	<stop  offset="0" style="stop-color:#ED1E79"/>
	<stop  offset="1" style="stop-color:#0000FF"/>
</linearGradient>
<path class="st2" d="M255.4,104.3C255.3,104.4,255.3,104.2,255.4,104.3c-0.4-1.2,7.2,6.6,21.7-3.2c2.3-1.5,2.3-2.2,2.3-2.5
	c-0.3-1.2-4,0-9.5-1.4c-3.2-0.8-5.9-2.3-10.5-3.4c-0.8-0.2-2.4-0.6-2.4-0.4c0,0.1,0.5,0.4,0.9,0.6c1.1,0.5,2.2,0.2,2.7,0.1"/>
<g>
	<path d="M40.9,164.3c2-0.1,4,0.5,5.7,1.7c2,1.4-0.1,4.4-2.1,3c-2.6-1.8-5.6-1.4-7.8,1s-2.8,6.5-1.3,9.6c1.5,3.2,4.5,4.6,7.3,3.8
		c2.4-0.7,4-3.3,4-5.8h-4.8c-2.5,0-2.5-3.7,0-3.7h6.3c1.5,0,2.3,0.4,2.3,2.1c0.1,6-2.2,9.6-6.8,10.9s-9.4-1.2-11.6-5.7
		c-2.2-4.5-1.5-10,1.9-13.7c1.7-1.8,3.8-2.9,6.1-3.2C40.3,164.3,40.6,164.3,40.9,164.3z"/>
	<path d="M62.7,164.2c0.8,0,1.4,0.4,1.7,1.1l8.2,19.3c0,0,0,0.1,0.1,0.1c0.4,0.9-0.1,2-1.1,2.4c-0.9,0.4-2-0.1-2.4-1.1l-2.6-6.1
		h-7.9l-2.6,6.1c0,0,0,0.1-0.1,0.1c-0.4,0.9-1.5,1.3-2.4,0.9c-0.9-0.4-1.3-1.5-0.9-2.4l8.2-19.3C61.3,164.7,61.9,164.3,62.7,164.2z
		 M60.3,176.3h4.8l-2.4-5.6L60.3,176.3z"/>
	<path d="M84.9,164.3c2-0.1,4,0.5,5.7,1.7c2,1.4-0.1,4.4-2.1,3c-2.6-1.8-5.6-1.4-7.8,1s-2.8,6.5-1.3,9.6c1.5,3.2,4.5,4.6,7.3,3.8
		c2.4-0.7,4-3.3,4-5.8h-4.8c-2.5,0-2.5-3.7,0-3.7h6.3c1.5,0,2.3,0.4,2.3,2.1c0.1,6-2.2,9.6-6.8,10.9s-9.4-1.2-11.6-5.7
		c-2.2-4.5-1.5-10,1.9-13.7c1.7-1.8,3.8-2.9,6.1-3.2C84.3,164.3,84.6,164.3,84.9,164.3z"/>
	<path d="M109,164.3c2-0.1,4,0.5,5.7,1.7c2,1.4-0.1,4.4-2.1,3c-2.6-1.8-5.6-1.4-7.8,1s-2.8,6.5-1.3,9.6c1.5,3.2,4.5,4.6,7.3,3.8
		c2.4-0.7,4-3.3,4-5.8h-4.8c-2.5,0-2.5-3.7,0-3.7h6.3c1.5,0,2.3,0.4,2.3,2.1c0.1,6-2.2,9.6-6.8,10.9s-9.4-1.2-11.6-5.7
		c-2.2-4.5-1.5-10,1.9-13.7c1.7-1.8,3.8-2.9,6.1-3.2C108.5,164.3,108.7,164.3,109,164.3z"/>
	<path d="M125,164.2C125,164.2,125,164.2,125,164.2c1.1,0,1.9,0.8,1.9,1.9v17.5h9.8c0,0,0,0,0.1,0c1,0,1.8,0.8,1.8,1.9
		c0,1-0.8,1.8-1.9,1.8H125c-1,0-1.8-0.8-1.8-1.8v-19.3C123.2,165,124,164.2,125,164.2z"/>
</g>
<linearGradient id="SVGID_4_" gradientUnits="userSpaceOnUse" x1="120.8539" y1="71.6793" x2="221.1759" y2="71.6793" gradientTransform="matrix(0.9843 -0.1765 0.1765 0.9843 -22.7204 120.2654)">
	<stop  offset="0" style="stop-color:#ED1E79"/>
	<stop  offset="1" style="stop-color:#0000FF"/>
</linearGradient>
<path class="st3" d="M156.3,114.2c3.2,5.5,5.5,9.6,6.6,11.5c7.7,13.5,8.5,15,10.9,17.6c1.5,1.6,3.6,3.7,7.9,8.3
	c0.4,0.4,2.6,2.8,5,5.9c2,2.5,2.7,4.1,4.2,6.7c0.7,1.2,4.6,8,9.7,13.1c6.6,6.6,10.8,6,11.4,9.3c0.9,4.7-6.1,12.1-14.3,14
	c-19,4.4-42.6-22.7-46.8-28.3c-0.7-0.9-2.9-4.1-6.8-7.5c-3.2-2.9-5.8-4.4-8.5-6.3c-2.6-1.8-6.1-4.8-13-10.8
	c-13.7-11.9-16.2-16.5-17.3-18.6c-1.5-2.8-2.4-5.4-2.9-7.4"/>
</svg>
